<svg xmlns="http://www.w3.org/2000/svg" viewBox="0 0 61.81 84.49"><title>Asset 9</title><g id="Layer_2" data-name="Layer 2"><g id="Layer_1-2" data-name="Layer 1"><path d="M5.37,60l.11.15a9.08,9.08,0,0,1-1.17-1.44c.29,1.62.82,3.33,3,2.67-.67.83-.11,2.1.1,1.94a5.19,5.19,0,0,1,.92.25,5.65,5.65,0,0,0-.59-.22,5.65,5.65,0,0,1,.59.22c1.82.68,2.9,2.3,4,4,.61.93,2.5,3.24,3,4.27l.26.43-.24-.53c.68.3,1.3.56,1.85.88a1.58,1.58,0,0,0,.11-.62l.14.29c.51-.1.94.39,1.28.48-.21.11-.08.32,0,.49l.05-.17c.48.65,1.25,1.2,1.71,1.74a.28.28,0,0,1,0,.27l.6.38c-.26.17.19.6-.18.49.62.13.81.66,1.42.77a22.54,22.54,0,0,0,4.26,3.46l.05-.11c.58.33,1.41.33,1.78,1,.68.13,1.36.56,2,.29.49.41.9.38,1.45.73.13-.33.69.19.67-.2.05-.61-.24-.37-.21-.87l-.07.08a25.19,25.19,0,0,0-2.67-4.27,21.48,21.48,0,0,1-2.44-2.47,25.26,25.26,0,0,0-2.92-2.29c-.24-.12-.17-.44-.21-.7-.77-.62-1.55-1.61-2.44-2.3l0,0c-.44-.39-.51-.94-.94-1.32-.06.06-.13,0-.19,0,.24-.37-3-1.85-2.93-2.16l-.16-.1c-.7-1-1-2.49-1.76-3.18a6.23,6.23,0,0,0-.9-.07c0-.26-.28,0-.39-.23.22-1-.27-1-.28-.57a7.37,7.37,0,0,1-1-.91l-.54-.27c-.17-.07-.14-.22-.05-.42-.38-.21-.14-.27-.39-.65.14-.28-1.11-.45-1.13-.6l.08,0c-.32-.4-.15-1-.48-1.41-.82-1.13-2-2-2.87-3-.23.21.25.15,0,.45-.5-.57-.76-1.38-1.26-2a1.35,1.35,0,0,1,0-.5c-.09-.25-.21,0-.3-.15L6.28,52c-.35,0-.05-.49-.31-.58-.09.07-.16,0-.22,0,.21-.21-.2-.17,0-.36h0s-.07-.05-.08-.13-1.38-.07-1.54-.05v-.07c-.11-.09-.3,0-.28.12l-.11-.13h0l-.11-.13a.33.33,0,0,1,.19-.22c-.14,0-.26,0-.29-.14a5.46,5.46,0,0,1,.11,1.15c-.15,0-.19-.27-.3-.33a2.42,2.42,0,0,0-.15-.85s-.31.19-.29,0-.1-.09-.06-.28c.17,0,.21.11.28.2.18-.21-.07-.33-.08-.45s-.19-.19-.34-.23c.23-.14,0-.2.07-.36s-.16-.06-.2,0c-.22.18.15.38-.15.5.07-.12-.09-.22-.17-.28-.11.11,0,.13-.18.19-.06-.1-.27-.05-.2-.21s.06,0,.08.06,1.26-.17,1.07-.24c-.06.13-1.23.07-1.17.15s-.24.15-.21.26l.2-.06c0,.13-.1.36-.21.4-.13-.16,1.16-.33.92-.35v.1c-.12,0-.33-.06-.27-.23a.3.3,0,0,1-.32.06v0c-.12,0-.18-.12-.28.07.38.34-1.33.87-1,1.28.09-.39.29-.2.47-.07a.59.59,0,0,0-.06.46c.12.08.14,0,.22-.07s.06.25-.08.37c.22-.08,0,.21.17.25s.06-.07.19-.09a4.09,4.09,0,0,1,.32.44c-.08.15-.17.47-.44.58-.16-.2.36-.23.14-.38-.19.35-.24-.09-.48.08a.3.3,0,0,0,.2.37v-.06c.12.05.36.17.31.41-.12.07-.14.19-.23.14l.11.14s.09,0,.08-.09.15.08.14.18,1.07.23,1,.27c.09.08,0,.26.15.24s-1.19-.5-1-.41c0,.18,1.5.49,1.37.74.07.06.17.12.26,0,.06.16-.23.16-.24.33,0,0,0-.06.07,0l-.05.2c.33,0,.38.47.77.44a1.67,1.67,0,0,1-.63.18l0-.07s-.18,0-.28.06.16.25.37.27a1.22,1.22,0,0,1,0,.15l0,0c0,.1,0,.11-.09.13l0,0c-.23.37.62.24.67.6.1,0,.06,0,.19,0a3.86,3.86,0,0,0,.29.84.34.34,0,0,0,.3-.32l.12.2c-.49.19,0,.63-.52.8a.23.23,0,0,0,.2.27c.09-.08.25-.2.36-.09a3.58,3.58,0,0,1,.07.43c-.08.14-.17.14-.26.23.35.06-.07.42.15.59s.4.31.6.12C5.69,59.76,5.55,59.9,5.37,60Z" transform="translate(-0.62)"/><path d="M51.83,54.32l-.14.13A9,9,0,0,1,53,53.09c-1.57.5-3.21,1.26-2.27,3.31-.91-.56-2.1.18-1.91.36a5.26,5.26,0,0,1-.13.95,5.84,5.84,0,0,0,.15-.61,5.84,5.84,0,0,1-.15.61c-.43,1.9-1.9,3.18-3.45,4.45-.84.73-2.89,2.85-3.85,3.48l-.39.3.49-.28c-.22.7-.42,1.34-.67,1.91a1.56,1.56,0,0,0,.63.05l-.27.16c.15.5-.29,1-.35,1.31-.13-.2-.32-.05-.49.08l.17,0c-.59.53-1.08,1.34-1.58,1.85a.28.28,0,0,1-.27.05l-.33.63c-.19-.25-.59.23-.51-.14-.08.62-.6.85-.65,1.46A23.92,23.92,0,0,0,34,77.54l.11,0c-.29.6-.25,1.43-.93,1.84-.09.68-.49,1.39-.18,2-.38.52-.33.93-.65,1.49.34.11-.15.71.24.66.61,0,.36-.27.86-.27l-.08-.07a24.51,24.51,0,0,0,4.13-2.94,23.18,23.18,0,0,1,2.33-2.62,24.21,24.21,0,0,0,2.09-3.11c.11-.25.43-.21.69-.27.57-.83,1.49-1.7,2.1-2.66l0,0c.36-.48.89-.61,1.23-1.09-.07-.06,0-.13,0-.19.4.2,1.55-3.19,1.85-3.19a1.33,1.33,0,0,1,.08-.18c.92-.82,2.36-1.29,3-2.16a6.19,6.19,0,0,0,0-.9c.26,0,0-.28.18-.42,1,.08.94-.4.53-.36a7.37,7.37,0,0,1,.78-1.1c.07-.19.14-.38.2-.58s.2-.17.41-.11c.16-.41.25-.18.59-.47.3.1.31-1.16.45-1.2v.08c.35-.37,1-.28,1.34-.66,1-1,1.76-2.28,2.63-3.23-.24-.2-.12.26-.45,0,.5-.56,1.27-.93,1.78-1.49a1.35,1.35,0,0,1,.49-.08c.24-.12,0-.2.11-.32l.24.15c0-.35.48-.11.54-.37-.08-.08,0-.16,0-.22.24.18.15-.22.35,0l0,0s0-.08.12-.1-.09-1.38-.13-1.53h.07c.08-.12-.06-.3-.15-.27l.12-.13v0l.12-.12a.34.34,0,0,1,.24.17c0-.14,0-.26.1-.3a5.49,5.49,0,0,1-1.13.24c0-.15.24-.22.3-.34a2.42,2.42,0,0,0,.82-.24c0-.05-.22-.28,0-.29s.08-.11.27-.09c0,.17-.09.22-.17.3.23.15.32-.11.43-.13,0-.09.17-.21.19-.36.17.21.2,0,.36,0s0-.17-.06-.19c-.2-.2-.36.19-.52-.09.13.06.21-.12.26-.2-.12-.1-.13,0-.21-.16.09-.07,0-.27.19-.23s0,.06-.05.09.31,1.24.36,1c-.14,0-.22-1.21-.28-1.14s-.18-.22-.28-.18l.09.19c-.12.06-.37-.06-.42-.16.15-.15.47,1.12.45.88h-.1c0-.12,0-.33.2-.3a.3.3,0,0,1-.09-.31h0c0-.12.1-.19-.1-.27-.3.42-1-1.22-1.39-.88.39,0,.23.27.13.46a.58.58,0,0,0-.46,0c-.06.12,0,.14.1.21-.11,0-.24.09-.37,0,.1.21-.21.05-.23.2s.08.05.11.18a4.11,4.11,0,0,1-.4.37c-.16-.06-.49-.12-.63-.37.18-.18.27.33.39.09-.37-.14.06-.25-.14-.46a.3.3,0,0,0-.34.24h.06c0,.13-.13.38-.38.36-.09-.11-.2-.12-.17-.21l-.13.12s0,.09.09.07-.06.16-.17.16-.1,1.09-.15,1c-.07.1-.26,0-.22.18s.35-1.24.29-1.08c-.19,0-.31,1.55-.57,1.45,0,.08-.09.19,0,.26-.15.08-.19-.2-.36-.2,0,0,.06,0,0,.06l-.21,0c0,.33-.42.43-.35.82a1.67,1.67,0,0,1-.25-.6l.08,0s0-.18-.09-.27-.23.19-.22.4h-.15l0,0c-.1,0-.11,0-.14-.08l0,0c-.39-.18-.17.65-.51.74,0,.1.05,0,.05.18a3.86,3.86,0,0,0-.8.39.34.34,0,0,0,.36.26l-.19.15c-.25-.46-.63.06-.86-.42a.23.23,0,0,0-.25.23c.09.08.23.22.13.35a3.62,3.62,0,0,1-.42.13c-.15-.06-.16-.15-.26-.22,0,.35-.42,0-.57.22s-.26.44,0,.62C52.15,54.6,52,54.47,51.83,54.32Z" transform="translate(-0.62)"/><path d="M28.5,19l0,.35a31.28,31.28,0,0,1,.19-3.5c-.94,2.55-1.77,5.57.23,7.54-1.06.21-1.55,2.69-1.29,2.74a13.88,13.88,0,0,1,.48,1.56c-.08-.36-.16-.72-.26-1.08.1.36.19.72.26,1.08.82,3.33.46,6.95.05,10.69-.2,2.08-.44,7.71-.74,9.84,0,.31-.07.62-.1.93l.19-1c.28,1.3.56,2.47.74,3.61a2.16,2.16,0,0,0,.51-.71l-.1.58c.44.53.42,1.75.61,2.32-.23-.12-.28.33-.31.73l.15-.16c-.1,1.51.09,3.27.06,4.62a.61.61,0,0,1-.17.42l.18,1.3c-.31-.1-.27,1.08-.47.46.37,1,.14,2,.52,2.88A76.43,76.43,0,0,0,30,74.38l.11-.08c.2,1.2.81,2.25.61,3.71.41,1,.63,2.52,1.27,2.93.09,1.2.41,1.68.58,2.85.32-.3.39,1.14.63.56.45-.78.07-.82.43-1.48l-.11,0a87.55,87.55,0,0,0,.9-9.31c-.27-2.09,0-4.36-.13-6.53-.11-2.34-.32-4.87-.59-6.87-.09-.48.18-.82.32-1.23-.14-1.84,0-4.19-.21-6.27a.78.78,0,0,1,0,.1c-.05-1.11.27-1.93.22-3-.09,0-.1-.16-.14-.24.42-.19-.88-6.36-.64-6.74,0-.11,0-.23,0-.35.19-2.28,1-4.64.94-6.59a12.44,12.44,0,0,0-.6-1.26c.18-.35-.17-.41-.12-.83.85-1.06.49-1.68.19-1.13-.11-.87,0-1.74-.07-2.52-.06-.36-.13-.72-.2-1.08a.56.56,0,0,1,.26-.63c-.12-.79.09-.55.18-1.38.3-.2-.47-2.07-.38-2.3l0,.13c.05-1,.63-1.59.65-2.52.22-2.59,0-5.42.1-7.82-.31,0,.07.53-.34.56.05-1.41.44-2.84.49-4.27a2.59,2.59,0,0,1,.34-.69c.12-.46-.15-.27-.11-.6l.28,0c-.23-.49.31-.71.2-1.17-.11,0-.13-.19-.12-.36.3,0,0-.5.25-.48h0a.66.66,0,0,1,0-.29c-.1-.19-.92-1.94-1-2.13l0-.09c0-.26-.23-.37-.28-.22l0-.32,0,0,0-.32a.21.21,0,0,1,.3,0,.75.75,0,0,1-.11-.57,11.43,11.43,0,0,1-.74,1.67c-.1-.22.06-.61,0-.85A5.59,5.59,0,0,0,33.94,3c0-.1-.35-.17-.2-.39s0-.25.16-.44a1.06,1.06,0,0,1,.06.64c.27,0,.18-.53.26-.7-.09-.08,0-.5-.07-.76.26.12.17-.21.31-.37s-.07-.29-.17-.22c-.28-.06-.17.71-.47.46.14-.07.09-.41.08-.6-.15,0-.12.13-.26,0,0-.21-.15-.43,0-.55,0,0,0,.13,0,.19,0-.27,1,1.47.92,1.12-.14.09-.92-1.55-.92-1.37s-.28-.12-.33.05l.19.19c-.06.23-.33.33-.43.25,0-.39,1.05,1.12.9.78l-.07.14c-.1-.14-.19-.52,0-.67-.15,0-.21-.19-.26-.35l0-.06c-.08-.16,0-.39-.24-.29,0,1-1.55-.63-1.64.3.34-.39.35.13.38.54a.79.79,0,0,0-.37.52c0,.26.12.15.21.2-.08.14-.14.41-.32.38.21.2-.13.32-.06.56s.09,0,.19.14c0,.32-.05.76-.09,1-.17.1-.46.39-.72.18,0-.48.42.18.36-.32-.38.21-.1-.44-.39-.53a.86.86,0,0,0-.13.75l.05-.05a1.3,1.3,0,0,1-.07,1c-.13-.06-.23.05-.27-.12l0,.33s.09.08.12,0a.37.37,0,0,1,0,.43c-.14,0,.59,1.74.5,1.69,0,.24-.21.29-.06.52a10,10,0,0,0-.44-1.94c-.15.2.71,2.67.44,2.82,0,.17,0,.38.18.34-.07.29-.27-.09-.41.12,0,0,.07,0,.07,0l-.18.2c.22.46-.07,1.13.23,1.61a1.82,1.82,0,0,1-.57-.61l.08-.05s-.09-.3-.24-.29a1.09,1.09,0,0,0,.07.85,1.75,1.75,0,0,1-.12.17h.06c-.09.1-.1.09-.16.05l0,0c-.42.18.27,1.15,0,1.69.06.16.07,0,.15.21a10.9,10.9,0,0,0-.39,1.5c.18.18.25.2.44,0l-.06.43c-.48-.39-.46.81-.94.37a.7.7,0,0,0-.05.63.33.33,0,0,1,.31.37c-.16.42-.1.32-.26.67-.16.08-.22,0-.34,0,.2.54-.34.47-.31,1,0,.32.07,1,.34,1C28.93,19,28.73,19,28.5,19Z" transform="translate(-0.62)"/></g></g></svg>