<svg id="Layer_1" data-name="Layer 1" xmlns="http://www.w3.org/2000/svg" viewBox="0 0 272.42 48.75"><defs><style>.cls-1{fill:#fffa40;}</style></defs><title>button-brush</title><path class="cls-1" d="M219.57,44.56c-25.47,3.54-56.27-1-81.46,1.27C123,47.4,107.34,48.1,91.86,48.66l-11.57.41-5.75.2-2.87.09-2.51.13c-6.62.35-13.68,1.25-21,2.25-.25-1.8,1.81-4.83-.75-5.4-5.1-.66-7.88-1.86-9.37-3.37s-1.75-3.31-2-5.11,7.52-1.07,4.77-2.51a111.69,111.69,0,0,0,11.72-2.28c3-.83,4.21-1.64.37-2.11-2.72-1.52-12.47,1.69-15.35-.65s1.73-5.75-1.14-8.09c-2.51.36-7.43,1-9.87,1.33-2.65-1.5,1.76-5.72-.67-5.41-7.44-.89-16.56.87-25.27.47,0-.91-.54-1.84-.51-2.64A1.26,1.26,0,0,1,.8,14.93a5.06,5.06,0,0,1,2.13-.78c9.15,0,19.08-1.37,29.82-3.15s22.35-3.92,35.1-4.76l2.39-.16L72.37,6l4.29-.2c2.85-.12,5.73-.29,8.57-.36,5.7-.19,11.41-.38,17.09-.48,11.38-.26,22.69-.32,34-.34,45-.05,89,.94,131.42-1.59,9.76.07,2.9,4.3-4.25,7.66,2.37-1.12,2.6,1.6,5,.48.12,1.36-.94,3.27-3.29,5.07a19.63,19.63,0,0,1-4.48,2.52,30.78,30.78,0,0,1-6.46,1.7l7.49-.51c2.56.69.21,2.72.35,4.53-2.52.2-5,.34-5,1.25l.25,3.62c1.27-.09,3.17-.19,5.07-.35l5.06-.44c-2.53.22-5.06.44-5,1.34l.28,3.62a37.9,37.9,0,0,1-8.93.6c-1.6,0-3.2,0-4.72.05a22.26,22.26,0,0,0-4.21.45l.14,2.72a29.4,29.4,0,0,0,4.26.18c1.52-.06,3.13-.19,4.72-.35,3.2-.33,6.38-.75,8.95-.94-2.5,1.11-2.43,2-2.3,3.81-3.83.7-7.73.51-11.6.53s-7.72.13-11.52,1.68l7.72-.36c-2.46,2.37-7,2.88-11.82,2.77S223.4,44.08,219.57,44.56Z" transform="translate(-0.12 -3.01)"/></svg>