<?xml version="1.0" encoding="utf-8"?>
<!-- Generator: Adobe Illustrator 21.1.0, SVG Export Plug-In . SVG Version: 6.00 Build 0)  -->
<svg version="1.1" id="Layer_1" xmlns="http://www.w3.org/2000/svg" xmlns:xlink="http://www.w3.org/1999/xlink" x="0px" y="0px"
	 viewBox="0 0 274 56" style="enable-background:new 0 0 274 56;" xml:space="preserve">
<g>
	<g>
		<g>
			<path d="M219.6,44.6c-25.5,3.5-56.3-1-81.5,1.3c-15.1,1.6-30.8,2.3-46.2,2.8c-3.9,0.1-7.7,0.3-11.6,0.4c-1.9,0.1-3.8,0.1-5.7,0.2
				l-2.9,0.1l-2.5,0.1c-6.6,0.3-13.7,1.2-21,2.3c-0.3-1.8,1.8-4.8-0.8-5.4c-5.1-0.7-7.9-1.9-9.4-3.4c-1.5-1.5-1.7-3.3-2-5.1
				c-0.2-1.8,7.5-1.1,4.8-2.5c3.7-0.5,8.7-1.5,11.7-2.3c3-0.8,4.2-1.6,0.4-2.1c-2.7-1.5-12.5,1.7-15.3-0.6c-2.9-2.3,1.7-5.7-1.1-8.1
				c-2.5,0.4-7.4,1-9.9,1.3c-2.7-1.5,1.8-5.7-0.7-5.4C18.4,17.3,9.3,19,0.6,18.6c0-0.9-0.5-1.8-0.5-2.6c0-0.4,0.2-0.8,0.7-1.1
				c0.4-0.3,1.1-0.6,2.1-0.8c9.2,0,19.1-1.4,29.8-3.2c10.7-1.8,22.4-3.9,35.1-4.8l2.4-0.2L72.4,6l4.3-0.2c2.9-0.1,5.7-0.3,8.6-0.4
				c5.7-0.2,11.4-0.4,17.1-0.5c11.4-0.3,22.7-0.3,34-0.3c45-0.1,89,0.9,131.4-1.6c9.8,0.1,2.9,4.3-4.3,7.7c2.4-1.1,2.6,1.6,5,0.5
				c0.1,1.4-0.9,3.3-3.3,5.1c-1.2,0.9-2.7,1.8-4.5,2.5c-1.8,0.7-4,1.3-6.5,1.7c2.5-0.2,5-0.3,7.5-0.5c2.6,0.7,0.2,2.7,0.3,4.5
				c-2.5,0.2-5,0.3-5,1.3c0.1,0.9,0.2,2.7,0.3,3.6c1.3-0.1,3.2-0.2,5.1-0.3c1.9-0.2,3.8-0.3,5.1-0.4c-2.5,0.2-5.1,0.4-5,1.3
				c0.1,0.9,0.2,2.7,0.3,3.6c-2.5,0.6-5.7,0.6-8.9,0.6c-1.6,0-3.2,0-4.7,0.1c-1.5,0-2.9,0.2-4.2,0.5l0.1,2.7
				c1.3,0.2,2.7,0.2,4.3,0.2c1.5-0.1,3.1-0.2,4.7-0.4c3.2-0.3,6.4-0.7,8.9-0.9c-2.5,1.1-2.4,2-2.3,3.8c-3.8,0.7-7.7,0.5-11.6,0.5
				c-3.9,0-7.7,0.1-11.5,1.7l7.7-0.4c-2.5,2.4-7,2.9-11.8,2.8C228.6,44.6,223.4,44.1,219.6,44.6z"/>
		</g>
	</g>
</g>
</svg>
