<svg id="Layer_1" data-name="Layer 1" xmlns="http://www.w3.org/2000/svg" viewBox="0 0 542.33 56.19"><title>title-brush</title><path d="M116.35,12.68c48.73-1.2,108.39,2.82,158,.34,29.77-1.65,60.88-2.32,92.1-2,7.81.11,15.61.17,23.41.43l11.68.35,5.83.19,6.09.31c16.3.86,31.89,2.87,46.81,4.86-.25,1.8-5.58,3.83-.73,5.4,9.71,2.7,14.35,5,16.57,7s2,3.82,1.73,5.62-14.7-2-10.05.45c-7.36-1-17.25-2.14-23.49-2.44s-8.79.11-1.48,1.87c4.72,2.36,24.6,3.25,29.13,6.64s-5.65,4.72-1.11,8.09c4.91.69,14.81,2,19.78,2.61,4.75,2.43-5.65,4.78-.66,5.41,14.76,3.66,35.37,4.86,56.35,4.45,0,.91,1.28,1.79,1.3,2.58,0,.4-.29.77-1.21,1.12a25.29,25.29,0,0,1-5.3.87c-23.28.28-45.9-2.23-67.73-4.93s-43-5.59-63.58-6.43l-3.86-.16-4.07-.1-8.14-.2c-5.43-.12-10.84-.31-16.29-.36-10.88-.16-21.76-.34-32.68-.37-21.82-.17-43.72-.08-65.66,0-43.9.14-88,.41-132.16-.64-22.06-.45-44.16-1.39-66.2-2.61l-16.53-1.1L56,49.31l-8.25-.7L31.23,47.19,14.78,45.45c-20-2.74-4.52-5,10.66-6.32-5.07.45-4.82-2.27-9.89-1.82.13-1.36,2.79-2.94,7.9-4.06A66.48,66.48,0,0,1,32.94,32a117.56,117.56,0,0,1,13.13-.31c-5-.38-9.92-.71-14.88-1.13-4.88-1.36.23-2.71.38-4.52,4.95.41,9.89.75,10-.15l.28-3.62c-2.46-.19-6.16-.43-9.86-.75l-9.84-.9c4.92.45,9.84.9,9.92,0l.3-3.62a154.39,154.39,0,0,1,17.2,1.3c3.06.34,6.13.68,9,.93s5.7.3,8.18.22l.17-2.72c-2.45-.37-5.2-.64-8.12-.86s-6-.46-9-.63c-6.14-.35-12.29-.54-17.19-1,5-.49,5.06-1.43,5.2-3.24,7.38.08,14.68,1.1,22,1.84s14.71,1.08,22.13.15l-14.7-.86A29.79,29.79,0,0,1,77,10.66c3.92-.07,8.35.18,12.95.48C99.17,11.76,108.95,12.94,116.35,12.68Z" transform="translate(-5.29 -10.65)"/></svg>