<svg id="Capa_1" data-name="Capa 1" xmlns="http://www.w3.org/2000/svg" viewBox="0 0 492.85 489.82"><defs><style>.cls-1{fill:none;}.cls-2{opacity:0.85;}.cls-3{fill:#202020;}</style></defs><title>github</title><path class="cls-1" d="M254.95,13.95C121.26,13.95,12.89,122.32,12.89,256S121.26,498.05,254.95,498.05,497,389.68,497,256,388.63,13.95,254.95,13.95Zm143.75,385.8a202.67,202.67,0,0,1-64.63,43.58q-9.22,3.9-18.72,6.85V413.9q0-28.6-19.62-42.08a211.81,211.81,0,0,0,22.57-3.31A170.38,170.38,0,0,0,340,362.37a107.74,107.74,0,0,0,20.57-9.57,85.75,85.75,0,0,0,17.49-14.42,84.35,84.35,0,0,0,14.06-20.09,110.14,110.14,0,0,0,9-26.95,168.3,168.3,0,0,0,3.31-34.63q0-36.64-23.87-62.4,10.88-28.37-2.36-61.7l-5.91-.71q-6.14-.71-22.1,5.2t-35.81,19.38a217.47,217.47,0,0,0-58.39-7.8,213.23,213.23,0,0,0-58.15,7.8,202.45,202.45,0,0,0-23.76-14.06,122.3,122.3,0,0,0-18-7.56,61.61,61.61,0,0,0-12.53-2.48,44.39,44.39,0,0,0-7.45-.24,15.11,15.11,0,0,0-2.36.47q-13.24,33.57-2.36,61.7-23.87,25.77-23.87,62.4a168.37,168.37,0,0,0,3.31,34.63,110.18,110.18,0,0,0,9,26.95,84.38,84.38,0,0,0,14.06,20.09,85.8,85.8,0,0,0,17.49,14.42A107.79,107.79,0,0,0,172,362.37a170.42,170.42,0,0,0,21.75,6.15,211.85,211.85,0,0,0,22.57,3.31q-19.38,13.24-19.38,42.08v37a203.58,203.58,0,1,1,201.78-51.14Z" transform="translate(-7.51 -13.93)"/><g class="cls-2"><path class="cls-3" d="M458.4,234.13a205.53,205.53,0,0,0-3.48-21.92c.37,1.83.71,3.65,1,5.49s.55,3.69.76,5.56C457.31,228.06,457.82,230.54,458.4,234.13Z" transform="translate(-7.51 -13.93)"/><path class="cls-3" d="M449.59,192.38c-.4-1.28-.83-2.55-1.25-3.73s-.82-2.19-1.21-3.15C448,187.78,448.84,190.08,449.59,192.38Z" transform="translate(-7.51 -13.93)"/><path class="cls-3" d="M434,157.11q4.88,9,8.71,17.62A156.32,156.32,0,0,0,434,157.11Z" transform="translate(-7.51 -13.93)"/><path class="cls-3" d="M446.56,185.13c-.71-2.27-1-3.41.51.22l.06.15c-1.39-3.59-2.83-7.13-4.46-10.77C444.29,178.58,445.55,182.09,446.56,185.13Z" transform="translate(-7.51 -13.93)"/><path class="cls-3" d="M446.56,185.13c.66,2.19,1.75,5.67,2,6.88C448.07,190,447.38,187.69,446.56,185.13Z" transform="translate(-7.51 -13.93)"/><path class="cls-3" d="M439.84,177.42c-1.65-3.45-.32-3.06-3.79-9.82a193.4,193.4,0,0,0-12.88-21.71,227.09,227.09,0,0,0-14.77-19.36c-2.5-2.83-5.61-6.59-8.85-10.25a104.6,104.6,0,0,0-9.51-9.66c-3.36-2.95-8.15-6.88-13.3-10.6s-10.63-7.25-15-9.83l-3.08-1.76-2.54-1.36a30.37,30.37,0,0,0-2.85-1.4c-.73-.26,1.17.78,6.85,4.26,4.28,2.61,8.25,5.29,12,8s7.27,5.43,10.62,8.16A204.66,204.66,0,0,1,400.9,119a198.67,198.67,0,0,1,15.54,18.39,194.68,194.68,0,0,1,13.92,21.42,200.41,200.41,0,0,1,17.4,39.84A196.44,196.44,0,0,1,456.14,242a188.87,188.87,0,0,1,.14,24.29,203.76,203.76,0,0,0-.56-32.78A145.52,145.52,0,0,0,450.81,208,233.31,233.31,0,0,0,439.84,177.42Z" transform="translate(-7.51 -13.93)"/><path class="cls-3" d="M412.08,386.17c1.17-1.51,2.94-3.79,4.34-5.75l1.8-2.49.72-1c10.79-13.37,19.47-29.48,25.82-46.34-1.14,2.37-2.27,4.79-3.52,7.19-2.05,4.72-3.26,7.32-3.37,7.76s.9-1.28,2.91-5.4a227.45,227.45,0,0,1-33.61,50.71C408.19,390,408.29,390.47,412.08,386.17Z" transform="translate(-7.51 -13.93)"/><path class="cls-3" d="M399.08,399.53c2.77-2.86,5.51-5.76,8.08-8.72-.08,0-.22.17-.34.26-2.61,3-5.34,5.93-8,8.75Z" transform="translate(-7.51 -13.93)"/><path class="cls-3" d="M380.67,95.84a203.06,203.06,0,0,0-101.05-42,210.2,210.2,0,0,0-35.45-1.26c-3.6.4-6.1.77-10.94,1.16-3.66.22-7.35.59-11,1.12a202.4,202.4,0,0,0-20.1,4.24c-2.3.61-4.6,1.34-6.94,2.06l-.19.06c-3.64,1.28-2.5,1.07-.2.47,2.58-.65,4.94-1.26,7-1.65-1.31.24-4.72,1.12-7,1.65l-5,1.43c-1.74.57-3.61,1.15-5.59,1.87-5.85,2.23-11.87,4.8-18,7.69a154.19,154.19,0,0,1,18-7.69c1.85-.72,3.68-1.35,5.49-2l5.44-1.82,3.18-1a204,204,0,0,0-43.23,18c-3.13,1.77-6.06,3.57-8.41,5.08-4.76,3.06-9.37,6.32-13.48,9.36l-10.49,8c-1.07.88-2.11,1.8-3.16,2.73s-2.11,1.85-3.14,2.82l1.24-1-2.37,2.08a207,207,0,0,0-23.8,26.33A213.76,213.76,0,0,0,79,153.29l-.49.73c-.31.45-.71,1.08-1.16,1.78-.89,1.41-2,3.08-2.65,4.21-1.31,3-3.25,7.13-5.41,12.06,2.89-5.71,5.84-10.71,8.66-15.33,4.24-6.66,8.35-15.71,14.73-22.67-6.38,7-10.49,16-14.73,22.67-2.82,4.62-5.77,9.62-8.66,15.33-2.23,5.14-4.64,11.09-6.84,17.18s-4.18,12.34-5.8,18a144.9,144.9,0,0,1,12.64-35.14c2.16-4.93,4.1-9.1,5.41-12.06.66-1.13,1.76-2.81,2.65-4.21.45-.7.85-1.33,1.16-1.78l.49-.73a213.76,213.76,0,0,1,12.56-19.87A205.63,205.63,0,0,0,72.9,163,207.88,207.88,0,0,0,59.41,196a204.87,204.87,0,0,0-6.06,25,207.18,207.18,0,0,0-2.83,25.4,214.3,214.3,0,0,0,.3,25.41,210.41,210.41,0,0,0,3.4,25.07,203.75,203.75,0,0,0,43,90,207.93,207.93,0,0,0,36.63,34.6,200.27,200.27,0,0,0,21.35,13.75,205.85,205.85,0,0,0,23,11.06q3,1.2,6,2.32c2.08.76,3.76,1.36,6.65,2.32,2.63.86,5.25,1.66,7.9,2.46.06,0,0,0,0-.08v-1.93l0-2.06,0-4.16,0-26.33a115.86,115.86,0,0,1,.44-12.72,54.86,54.86,0,0,1,2.67-12.24,42.13,42.13,0,0,1,5.73-11l1-1.22.26-.33c.12-.15.24-.31.36-.44A9.87,9.87,0,0,1,210,380l1.58-1.6c.27-.27.51-.54.81-.8l1-.79c1.26-1.05,2.53-2.1,3.88-3.12l2-1.53,1.93-1.41,0-.33,0-.16c-.11,0-.31,0-.45-.05l-1.92-.19-3.9-.41c-2.63-.29-5.28-.58-7.91-.94l-3.76-.55-2.95-.49q-3-.51-5.94-1.13a169.83,169.83,0,0,1-23.82-7c-9.92-3.74-19.33-8.64-27.21-15.43a91.49,91.49,0,0,1-11-11.05,81.74,81.74,0,0,1-8.68-12.78c-5-9-8.06-18.95-10.19-29a161,161,0,0,1-3.16-30.66,98.56,98.56,0,0,1,3.65-30,81.86,81.86,0,0,1,13.34-26.55c.72-1,1.5-2,2.3-2.93l1.18-1.44.16-.19.22-.25.45-.5.9-1,1.79-2,.45-.5.22-.25-.12-.33-.47-1.32c-.59-1.7-1.37-3.79-1.59-4.71A69.16,69.16,0,0,1,130,174.23a82.11,82.11,0,0,1,3.14-29.05c1.07-3.86,2.45-7.64,3.87-11.29l-2.13,2a11.91,11.91,0,0,1,1.25-.24l.41-.06.25,0,.67,0c1,0,2.24.06,3.41.14a57.61,57.61,0,0,1,6.9.81,64.58,64.58,0,0,1,6.75,1.63,66.94,66.94,0,0,1,6.54,2.34c4.35,1.79,8.69,3.87,12.92,6s8.33,4.53,12.37,7q3,1.87,6,3.84l4.15,2.79.61.41c.21.05.43-.09.64-.12l1.28-.35,2.57-.69,1.08-.28.86-.21,1.72-.43,3.44-.81q3.45-.77,6.92-1.43a211.61,211.61,0,0,1,28-3.32,220.67,220.67,0,0,1,55.73,4q3.41.71,6.81,1.52l3.38.84,4.92,1.32.64.17a4.34,4.34,0,0,0,.59-.37l1.18-.79,2.31-1.54,2.93-1.9q2.94-1.89,5.93-3.67a142,142,0,0,1,24.8-12.06,102.84,102.84,0,0,1,13-3.92,21.94,21.94,0,0,1,5.82-.59l2.71.33.58.07a1.07,1.07,0,0,1,.28.05l.13.35.53,1.43,1.08,3.25c.67,2.18,1.33,4.37,1.83,6.58a86.74,86.74,0,0,1,2.2,13.4,70.38,70.38,0,0,1-2.88,26.67l-.24.81-.12.4,0,.1-.06.17-.12.35-1,2.77-.5,1.39-.25.7c0,.22-.28.49,0,.64l1.85,2.1c2.93,3.26,3.82,4.49,5.32,6.4a82.31,82.31,0,0,1,12.57,24.15,87.33,87.33,0,0,1,3.08,13.39,91.26,91.26,0,0,1,1,13.83c0,4.69-.17,9.49-.52,14.21a143.19,143.19,0,0,1-4.83,28,102.43,102.43,0,0,1-4.67,13.3A79.38,79.38,0,0,1,383,323a80.5,80.5,0,0,1-6.24,8.23,91.22,91.22,0,0,1-7.9,8,78,78,0,0,1-9.4,7.23,89.67,89.67,0,0,1-11,6,120,120,0,0,1-12.43,4.85c-4.37,1.46-8.84,2.8-13.39,3.92s-9.18,2-14,2.77l-2.78.41-3.69.49c-2.51.31-5,.59-7.66.84l-15.35,1.51,9.2,6.75c3,2.3,6.53,4.6,8.59,6.82l1.78,1.68c.31.28.55.57.82.85.13.12.27.34.41.51l.21.26c.39.52.84,1,1.2,1.55l1.11,1.61,1,1.68a40.92,40.92,0,0,1,3.2,7.24,51.81,51.81,0,0,1,1.85,7.88,63.27,63.27,0,0,1,.69,8.22c0,1.34,0,2.86,0,4.35v4.46l0,17.47V444c0,2.8,0,5.65,0,8.33l.08,4,0,1v.94l.06,0,1.94-.61,7.65-2.42q1.9-.62,3.8-1.27l3.23-1.14q1.94-.71,3.84-1.44c2.53-1,5-2,7.4-3a211.85,211.85,0,0,0,25.51-13.13,182.11,182.11,0,0,0,20.72-15.15A139.48,139.48,0,0,0,395,409.34c1.28-1.41,2.32-2.57,3.13-3.57s1.38-1.8,1.79-2.42c.81-1.25.91-1.79.53-1.87-.77-.16-3.36,1.64-6,3.51s-5.37,3.86-6.12,4.46a266.11,266.11,0,0,1-28,18.48,231.92,231.92,0,0,1-31.77,15.16q-2.21.85-4.5,1.67l-1.94.68-1.45.48c-1,.3-2,.66-2.91.88l0-3.2.14-21.45c0-4.05.14-8.13,0-12.66a64.19,64.19,0,0,0-2.06-13.81,48.06,48.06,0,0,0-6.11-13.93l-1.12-1.66c-.39-.55-.82-1.07-1.22-1.61L307,378c-.09-.13-.2-.24-.3-.36l-.61-.71a20.52,20.52,0,0,0-2.68-2.44l-.23-.18-.12-.09s.1,0,.15,0l.68,0,1.35-.1,2.63-.23,1.39-.15,2.76-.38q3-.43,6-1c-2.17.4-4.17.72-6,1l-2.57.36-1.18.12c-1.31.11-2.42.17-3.28.21-1.74.06-2.48,0-2-.15s2.11-.42,4.88-.89l3-.52q2.08-.36,4.41-.81c3.1-.6,6.52-1.34,10.16-2.29s7.49-2.07,11.5-3.39,8.2-2.81,12.43-4.63A105.42,105.42,0,0,0,362,354.8,84.42,84.42,0,0,0,374,346a97.65,97.65,0,0,0,10.5-10.68A90,90,0,0,0,393,323.18a108.74,108.74,0,0,0,10.54-25.34,153,153,0,0,0,5.76-37.74c.58-13.33-1-27.94-6.69-41.64a88.78,88.78,0,0,0-11-19.56c-1.08-1.56-2.32-3-3.49-4.49l-.4-.49-.12-.14-.23-.27-.23-.27c-.07-.09-.2-.19-.13-.25l.15-.4,0,0,0-.11.21-.7.42-1.4c.6-1.86,1-3.78,1.49-5.68A86,86,0,0,0,391,172.93a87.52,87.52,0,0,0-.11-11.88,91.76,91.76,0,0,0-1.72-11.76c-.36-2-.91-3.85-1.37-5.78s-1.06-3.81-1.72-5.67l-.95-2.81-1.75-4.63-.9-2.37c-.08-.2-.14-.4-.23-.59l-.67-.08-1.35-.16-5.23-.62-1.42-.17-.75-.08-1.07-.08a26,26,0,0,0-3.69.15,49.33,49.33,0,0,0-6.32,1.19,118.83,118.83,0,0,0-11.43,3.58c-3.68,1.33-7.46,2.87-11,4.56a186.3,186.3,0,0,0-20.63,11.5l-2.46,1.59-2.34,1.55c-.15.1-.29.22-.46.31l-1-.25-2.37-.59c-1-.24-1.9-.47-2.86-.68-1.91-.45-3.82-.85-5.74-1.25a235.8,235.8,0,0,0-91.65,0c-3.25.65-6.5,1.42-9.76,2.23l-.85.22-.37.1c-.05,0-.07,0-.11-.06l-.09-.07-.79-.53-2.13-1.4a193.44,193.44,0,0,0-18.1-10.47c-3.18-1.6-6.39-3.12-9.75-4.6a89.28,89.28,0,0,0-10.68-4,68.76,68.76,0,0,0-11.66-2.4l-1.54-.15-1.44-.11c-1-.07-1.94-.13-3-.18a31.24,31.24,0,0,0-3.47,0c-1,.09-1.32.17-1.94.27a15.41,15.41,0,0,0-2.18.52l-2.49.79-.93,2.45c-1.39,3.69-2.85,7.6-4,11.72-.51,1.6-.86,3.25-1.29,4.87s-.7,3.29-1.05,4.94A95.63,95.63,0,0,0,121,162.15a79.68,79.68,0,0,0,3.51,30.25l.13.44c0,.09.12.15-.07.31l-.37.41-.19.2-.77.94a92.78,92.78,0,0,0-21.53,55,164.68,164.68,0,0,0,.11,19.41,166.76,166.76,0,0,0,2.23,19.22,143,143,0,0,0,4.7,18.89q1.52,4.67,3.49,9.24a91.51,91.51,0,0,0,4.48,8.9,89.59,89.59,0,0,0,11.74,16.09,90.94,90.94,0,0,0,32.13,22.89c3,1.32,6,2.5,9.11,3.58s6.07,2,9.16,3a161.85,161.85,0,0,0,18.86,4.42l2.38.4,2.14.33.29,0h.48l0,0a1.61,1.61,0,0,0-.21.2l-.09.11-1.06,1.35c-.44.54-.8,1.13-1.2,1.7a48.93,48.93,0,0,0-4.06,7.21,54.73,54.73,0,0,0-2.77,7.68,68.8,68.8,0,0,0-2.41,15.74l-.07,3.91v3.66l0,7.34,0,14.71v3.38a2.23,2.23,0,0,1-.25-.06l-.27-.08-2.41-.83q-3.39-1.21-6.75-2.54c-4.47-1.77-8.88-3.75-13.24-5.85A198.06,198.06,0,0,1,83.16,354a206.12,206.12,0,0,1-15-32.4,201.29,201.29,0,0,1-10-96.57,187.42,187.42,0,0,1,4.83-22.48A189.69,189.69,0,0,1,70.56,181,202.42,202.42,0,0,1,80,161.33c3.36-6.12,6.88-11.76,10.34-16.86a206.34,206.34,0,0,1,36.29-40.61,202,202,0,0,1,41.16-27.45,197.17,197.17,0,0,0-41.15,27.13,200.2,200.2,0,0,0-17.79,17.19q-4.38,4.75-8.69,10.12c-2.9,3.57-5.73,7.41-8.58,11.49-1.91,2.72-3.1,4.57-3.83,5.62s-.95,1.33-.8,1c.33-.7,2.16-3.91,4.95-8.17s6.59-9.51,10.58-14.42,8.14-9.47,11.23-12.65a106.43,106.43,0,0,1,10.13-9l10.7-8.27a230.84,230.84,0,0,1,20-13.59,198.6,198.6,0,0,1,22.26-11.63c7-3.09,6.51-1.79,10-3.24,5.64-2.11,11-3.88,16.19-5.42s10.07-2.81,14.77-3.83a146.25,146.25,0,0,1,25.63-3.51c5.87-.25,11.46-.24,16.87,0s10.62.65,15.74,1.24c6.48.73,12.89,1.73,19.64,3.08,4.2.79,8.54,1.73,12.84,2.84a29.49,29.49,0,0,1-5.53-2.48,203.25,203.25,0,0,1,20.85,6.63,203.25,203.25,0,0,0-20.85-6.63,29.49,29.49,0,0,0,5.53,2.48,198.81,198.81,0,0,1,88.93,50l-.27-.38a227.18,227.18,0,0,0-48.57-36.11c4,2.18,5.61,3.31,5.19,3.17a22.51,22.51,0,0,1-2.21-1.08l-5.35-2.7-3.44-2-3.47-1.88A167.84,167.84,0,0,1,383.94,99.5l3.38,2.7c1.84,1.54,4.07,3.37,5.49,4.65a31.92,31.92,0,0,1,3.43,3.66c.48.65.55.91.89,1.42,1.42,1.35,2.78,2.79,4.18,4.19s2.74,2.87,4.09,4.34a176.58,176.58,0,0,0-14-15.09c-1.41-1.31-2.75-2.6-4-3.74l-3.42-3Z" transform="translate(-7.51 -13.93)"/><path class="cls-3" d="M183.84,65.15c2.57-1,5.76-2.15,9.19-3.26a203.92,203.92,0,0,0-36.17,15.39C163.17,74.3,173.24,69.19,183.84,65.15Z" transform="translate(-7.51 -13.93)"/></g><g class="cls-2"><path class="cls-3" d="M373.88,46.74c2.16,1.27,4.37,2.49,6.51,3.81l6.36,4.11c-2.1-1.43-4.16-2.87-6.24-4.41A49,49,0,0,0,373.88,46.74Z" transform="translate(-7.51 -13.93)"/><path class="cls-3" d="M398.21,62.68c.75.52,1.45,1.11,2.13,1.63l1.86,1.35C400.87,64.67,399.57,63.61,398.21,62.68Z" transform="translate(-7.51 -13.93)"/><path class="cls-3" d="M418.59,79.31c-1.63-1.66-3.39-3.11-5.08-4.58l-5-4.26c1.41,1.27,3,2.63,4.64,4.09S416.71,77.52,418.59,79.31Z" transform="translate(-7.51 -13.93)"/><path class="cls-3" d="M402.73,65.57c1.19,1.11,1.72,1.72-.45.16l-.09-.07c2.08,1.59,4.18,3.14,6.31,4.82C406.33,68.64,404.37,67,402.73,65.57Z" transform="translate(-7.51 -13.93)"/><path class="cls-3" d="M402.73,65.57c-1.15-1.07-3-2.73-3.66-3.29Z" transform="translate(-7.51 -13.93)"/><path class="cls-3" d="M410.12,67.05c2.14,1.65,1,2,5.19,5.31l3.55,2.93,3.32,3c2.16,2,4.36,3.86,6.39,5.86l6,6c.5.51,1,1,1.49,1.53l1.43,1.61,2.87,3.28c.91,1,1.89,2.14,2.9,3.41s1.94,2.73,2.93,4.13,2,2.83,2.9,4.14l1.39,1.88c.43.61.85,1.19,1.25,1.72l3.29,4.38c1.23,1.63,2.59,3.36,3.83,5.22l3.81,5.47c.61.89,1.24,1.74,1.79,2.59L466,132c3.9,6.09,5.82,8.81,1.08.61-.91-1.53-1.74-3.06-2.66-4.5l-2.74-4.21c-1.79-2.75-3.48-5.43-5.33-7.88s-3.52-4.93-5.29-7.26l-5.4-6.75c-1.73-2.26-3.69-4.31-5.54-6.45s-3.71-4.3-5.77-6.33l-6.14-6.33-6.76-6.35c-1.87-1.79-3.9-3.39-5.86-5s-3.91-3.32-5.94-4.87L403.52,62c-1-.75-2-1.56-3.08-2.27l-3.16-2.15c-2.12-1.43-4.2-2.9-6.35-4.29l-6.57-4c-1.1-.67-2.19-1.37-3.31-2l-3.41-1.88c-2.29-1.25-4.57-2.54-6.89-3.79-5.3-2.63-10.11-5.35-15.21-7.59l5,2.36L365.43,39l5.1,2.74c1.71,1,3.42,2,5.19,3.08L391.39,54l9,5.85C403.52,62,406.72,64.48,410.12,67.05Z" transform="translate(-7.51 -13.93)"/><path class="cls-3" d="M268,15.06l7.91.28c11.65,1.76,23.91,3.23,36,6l-5.24-1.7a30.2,30.2,0,0,0-5.74-1c-.16,0,.09.12.77.3s1.78.39,3.29.83a193,193,0,0,0-41.55-5.58C264.29,14.51,264.1,14.76,268,15.06Z" transform="translate(-7.51 -13.93)"/><path class="cls-3" d="M255.24,14.09l8.19.13a3,3,0,0,0-.29-.09l-8.19-.07Z" transform="translate(-7.51 -13.93)"/><path class="cls-3" d="M455.61,121.15a239.22,239.22,0,0,1,37.23,92.63c.31,1.21.6,2.23.86,3.36.13.57.26,1.16.39,1.82s.18,1.4.26,2.23c.15,2.53.37,5.06.62,7.57.34,2.34.47,4.69.64,7l.51,7c.14,1.63.15,3.29.24,5v.14c.18,2.64.3,1.86.4.21,0-1.83.15-3.52.2-5,0,.92-.11,3.36-.2,5-.07,2.23-.1,4.71-.08,7.61,0,4.3-.08,8.81-.33,13.44.09-5.17.16-9.62.33-13.44l-.33-8-.14-2.29c.1,5.38.33,10.75.06,16.1l-.12,4c-.05,1.34,0,2.68-.18,4l-.65,8c-.09,1.23-.13,2.43-.26,3.56l-.36,3.14-.64,5.74-.33,2.78-.47,2.65c-.63,3.45-1.26,6.52-1.91,8.83-.4,1.85-.87,3.72-1.31,5.6l.33-1.06-.57,2.08c-.48,2-.9,3.94-1.42,5.89l-1.69,5.83c-.58,1.94-1.09,3.91-1.73,5.83l-2,5.76c-1.4,5.08-3.35,10.14-5.17,15.27l-.27.54-.72,1.28-1.68,3c-.34,1.05-.81,2.32-1.36,3.74a49.19,49.19,0,0,1-2,4.67c1.17-1.87,2.12-3.74,3.09-5.51s1.87-3.49,2.73-5.16a20.77,20.77,0,0,0,.95-1.89c.27-.67.53-1.36.78-2.07.5-1.42,1-2.92,1.47-4.43s1-3,1.61-4.57a35.06,35.06,0,0,1,1.85-4.52,35.06,35.06,0,0,0-1.85,4.52c-.58,1.52-1.11,3.05-1.61,4.57s-1,3-1.47,4.43c-.25.71-.51,1.4-.78,2.07a20.77,20.77,0,0,1-.95,1.89c-.86,1.67-1.78,3.38-2.73,5.16s-1.92,3.64-3.09,5.51a142,142,0,0,1-13,22.1l13-22.1a49.19,49.19,0,0,0,2-4.67c.56-1.42,1-2.69,1.36-3.74l1.68-3,.72-1.28.27-.54c1.82-5.13,3.78-10.19,5.17-15.27a240.53,240.53,0,0,1-20.35,43.67A252.25,252.25,0,0,1,440,409.82a244.66,244.66,0,0,1-91.68,67.68,239.76,239.76,0,0,1-74.69,17.87c-3.25.23-6.5.54-9.77.55s-6.54.19-9.83.18l-9.87-.28c-1.65,0-3.3-.19-4.95-.31l-5-.39a246.22,246.22,0,0,1-39.65-6.85A238.49,238.49,0,0,1,58.46,391.42,240.22,240.22,0,0,1,17.56,239.5l.39-4.92c.12-1.64.24-3.28.49-4.91l1.27-9.8,1.77-9.73c.16-.81.28-1.63.46-2.43l.57-2.41,1.14-4.82a236.76,236.76,0,0,1,12.69-37.69,230.9,230.9,0,0,1,45-67.16l5.86-5.94c2.07-2,4.34-4.06,6.62-6.21s4.77-4.23,7.29-6.4l3.85-3.28L109,70.61A244.17,244.17,0,0,1,145.9,46.83,240.47,240.47,0,0,1,186.2,30.2a233.1,233.1,0,0,1,35.55-7.95l9.19-1.49c2.78-.33,5.26-.64,7.47-.94,4.42-.68,7.8-1,10.3-1.35,5-.74,6.53-1.45,6.24-2.07-.56-1.24-8.48-2.13-9.81-2.21-1.08-.07-2.15-.19-3.22-.2l-3.18,0c-2.12,0-4.22,0-6.32,0s-4.19.14-6.28.29l-6.33.51c-2.13.14-4.25.51-6.42.82l-6.6,1c-2.24.36-4.48.91-6.8,1.39s-4.7,1-7.12,1.6l-7.45,2c-1.27.37-2.59.67-3.89,1.11l-4,1.31-4.11,1.35c-1.39.46-2.82.9-4.22,1.47l-8.83,3.37A276.22,276.22,0,0,0,119.59,51c5.19-3.14,8.58-5.21,10.64-6.15s2.52-1.14,1.8-.59c-.36.27-1,.72-2,1.31s-2.14,1.32-3.52,2.28l-4.82,3.21-2.86,1.88c-1,.64-2,1.41-3,2.15l-6.7,4.79c-2.31,1.75-4.69,3.65-7.17,5.58s-4.94,4-7.47,6.17l-3.81,3.23L87,78.26A300.73,300.73,0,0,0,60.08,106.2a204.22,204.22,0,0,0-29.67,45.66,228.67,228.67,0,0,0-18.88,58.41l-1.37,7.86-1,8-.48,4c-.16,1.33-.21,2.67-.32,4l-.57,8c-.17,2.69-.14,5.38-.22,8.08s-.19,5.39,0,8.08c.18,5.39.23,10.78.77,16.14a265,265,0,0,0,4.4,31.76l1.76,7.73.87,3.85,1.05,3.79,2.08,7.54c.76,2.48,1.6,4.93,2.39,7.38,1.49,4.93,3.53,9.75,5.43,14.73,1,2.48,2.16,4.9,3.25,7.39s2.21,5,3.53,7.45L37,373.56c1.37,2.49,2.84,5,4.29,7.5.74,1.26,1.44,2.55,2.22,3.8l2.4,3.76,2.44,3.81,1.23,1.93,1.32,1.88A243.89,243.89,0,0,0,203.07,498.52a251.45,251.45,0,0,0,94,1.52A248.82,248.82,0,0,0,388,464.82a228.57,228.57,0,0,0,39.14-31.63,249,249,0,0,0,29.21-35.56,255.56,255.56,0,0,0,29.53-55.12,242,242,0,0,0,10.56-37.69l1.5-9,.36-2.22.26-2.22L499,287c.78-5.85,1-11.64,1.32-17.34-1.61,25.48-4.74,44.18-14,71.2-3.49,8.87-2.49,5.69-.25-1.21l1.69-5.81.94-3.18.48-1.61.41-1.64,1.57-6.31c.48-2,1-3.78,1.28-5.33.5-2.64,1.48-5.95,2.47-9.27a81.78,81.78,0,0,0,2.05-9.38c.24-1.44.53-2.86.71-4.29l.49-4.26c.29-2.83.66-5.64.85-8.49.27-5.71.68-11.51.58-17.78-.11-5.37.93-4.74.77-7.43-.18-4.28-.35-8.31-.66-12.11L498.4,232c-.48-3.36-1.09-6.51-1.53-9.5-.25-1.49-.41-3-.67-4.37s-.5-2.79-.7-4.13l-1-6c-.14-1-.34-1.94-.54-2.88l-.59-2.82c-.81-3.72-1.46-7.36-2.46-10.86l-1.83-6.68c-.16-.56-.31-1.13-.48-1.69l-.56-1.68L486.9,178c-1.07-2.82-2-5.8-3.33-8.66a18.85,18.85,0,0,1,.55,2.7,9.1,9.1,0,0,1,0,1.58c-.32-1.07-.76-2.23-1.22-3.44l-1.38-3.75c-1-2.53-1.8-5.11-2.75-7.14,1,2,1.8,4.61,2.75,7.14l1.38,3.75c.45,1.21.89,2.37,1.22,3.44a9.1,9.1,0,0,0,0-1.58,18.85,18.85,0,0,0-.55-2.7l-3.34-7.89c-1.21-2.64-2.52-5.28-3.79-8-.66-1.33-1.25-2.71-2-4l-2.15-4c-1.46-2.65-2.81-5.39-4.45-8l-4.76-7.89L458,121.91,456.7,120l-1.36-1.85-2.72-3.68-2.7-3.65c-.93-1.19-1.9-2.34-2.84-3.51l.13.3a191.8,191.8,0,0,1,22.26,35.67c-.67-1.42-1.12-2.45-1.41-3.09s-.38-.89-.26-.78a34.48,34.48,0,0,1,2.9,5.1l2.07,5.09-4.41-8.2c-1.51-2.7-3.14-5.32-4.65-8s-3.14-5.23-4.71-7.8-3-5.18-4.65-7.64l-4.88-6.3c-2.27-3.22-2-3.23-2.26-4-1.71-2.13-3.41-4.3-5.18-6.43l3.58,5.12,2.31,3.23,1.18,1.66,1.1,1.69,3.8,5.79,1.18,1.8C455.48,120.9,455.61,121.15,455.61,121.15Z" transform="translate(-7.51 -13.93)"/><path class="cls-3" d="M496.67,256.06l-.24-6.7.13,6.75-.2,6.75c-.09,2.25-.08,4.51-.26,6.75l-.55,6.75a79.14,79.14,0,0,0,1-9C496.6,263.85,496.64,260,496.67,256.06Z" transform="translate(-7.51 -13.93)"/></g></svg>