<svg version="1.1" class="ip-inner" width="100%" height="100%" viewBox="0 0 641 641" preserveAspectRatio="xMidYMin meet" aria-labelledby="logo_title">
	<path class="st0" d="M525.1,260.5c6.5-74.2-85.2-177-191.6-179.4c-111.8-2.5-210.4,99.4-199.8,179.4H525.1z"/>
<path class="st0" d="M532.2,305.6H130.1c-3.3,0-6-2.7-6-6v-33.1c0-3.3,2.7-6,6-6h402.2c3.3,0,6,2.7,6,6v33.1
	C538.3,302.9,535.6,305.6,532.2,305.6z"/>
<path class="st1" d="M335,507.6"/>
<path class="st0" d="M519.8,311c-4.7,100.6-90.7,245.2-190.6,246c-101.1,0.9-183.9-144.2-188.7-246H519.8z"/>
<circle class="st2" cx="252.8" cy="367.4" r="46.7"/>
<circle class="st2" cx="407.5" cy="367.4" r="46.7"/>
<path class="st3" d="M299.6,367.4"/>
<line class="st0" x1="440.3" y1="373.3" x2="519.8" y2="320.6"/>
<line class="st0" x1="220.1" y1="373.3" x2="140.6" y2="320.6"/>
<path class="st0" d="M290,370c0,0,34-11,78,0"/>
					</svg>